<?xml version="1.0" encoding="UTF-8"?>
<svg width="2623px" height="643px" viewBox="0 0 2623 643" version="1.1" xmlns="http://www.w3.org/2000/svg" xmlns:xlink="http://www.w3.org/1999/xlink">
    <title>24afisha_logo_yellow-black</title>
    <defs>
        <linearGradient x1="30.3941561%" y1="91.9261767%" x2="61.2547568%" y2="5.81310666%" id="linearGradient-1">
            <stop stop-color="#000" offset="0%"></stop>
            <stop stop-color="#000" offset="100%"></stop>
        </linearGradient>
    </defs>
    <g id="Page-1" stroke="none" stroke-width="1" fill="none" fill-rule="evenodd">
        <g id="24afisha_logo_yellow-black" transform="translate(-283.000000, -72.000000)" fill-rule="nonzero">
            <g transform="translate(283.946034, 72.000000)">
                <path d="M1545.55844,452.855401 C1524.33583,448.933832 1503.3439,443.166819 1482.81334,435.554363 L1482.81334,368.426335 C1502.88254,379.268319 1524.33583,387.572817 1546.94252,392.878469 C1584.99726,401.996222 1624.39445,404.106785 1663.20549,399.106842 C1671.27931,397.95344 1679.35313,395.646635 1686.96559,392.417108 C1691.5792,390.802344 1695.73145,387.803498 1698.49961,383.881929 C1700.47743,381.19983 1701.6027,377.98479 1701.72914,374.654709 C1701.62134,370.089352 1699.40692,365.830847 1695.73145,363.120683 C1690.65647,359.199115 1684.88946,356.200268 1678.89177,354.124143 C1670.73413,351.317991 1662.41449,349.006981 1653.97827,347.203728 L1623.98981,340.975355 L1591.46386,334.054939 C1580.16051,331.517454 1569.31853,328.518607 1558.70722,325.28908 C1548.55728,322.059553 1538.40734,318.368665 1528.71876,313.755055 C1519.79399,309.522023 1511.48956,304.089216 1504.03594,297.607419 C1489.08396,285.942251 1480.52976,267.892895 1480.96789,248.933832 C1480.23479,227.762413 1489.14295,207.400902 1505.18935,193.57051 C1513.03248,187.111456 1521.79834,182.036485 1531.02556,178.114916 C1541.17551,174.193348 1551.32545,171.194501 1561.93675,168.887696 C1572.77873,166.580891 1583.62072,165.196808 1594.69338,164.274086 C1616.43452,162.774201 1638.2582,162.928432 1659.97597,164.735447 C1692.46646,167.656395 1724.51191,174.313179 1755.4777,184.57397 L1755.4777,249.625874 C1739.24985,241.83876 1722.23682,235.806868 1704.72799,231.632794 C1679.82266,225.32901 1654.28725,221.846908 1628.60342,221.252171 C1612.77064,221.310714 1596.96405,222.5444 1581.31391,224.943059 C1576.93098,225.635101 1572.77873,227.019184 1568.85717,228.864628 C1566.31968,229.78735 1563.7822,231.171433 1561.93675,233.247558 C1560.38799,234.444845 1559.19229,236.039118 1558.47654,237.861168 C1558.05804,239.128165 1557.82495,240.449022 1557.7845,241.782736 C1557.94035,246.204226 1560.27187,250.262789 1564.01288,252.62472 C1569.08785,256.315608 1574.85486,259.083774 1580.85255,260.929218 C1588.92637,263.466704 1597.00019,265.773509 1605.53537,267.618953 C1626.54542,271.79073 1647.46511,276.405367 1668.28046,281.459784 C1679.58381,284.22795 1690.42579,287.226796 1701.0371,290.687004 C1711.41772,294.377892 1721.33698,298.299461 1731.02556,303.143751 C1740.0221,307.757361 1748.3266,313.063013 1755.93906,319.752748 C1762.85947,325.750441 1768.39581,333.132217 1772.77873,341.436716 C1781.21048,361.667685 1780.79223,384.503844 1771.62533,404.412494 C1767.01172,413.639714 1760.55267,422.174893 1752.47885,429.095308 C1744.17435,436.015724 1734.94713,441.321375 1724.79719,445.242944 C1714.09918,449.298067 1703.05924,452.386162 1691.80988,454.470164 C1680.27585,456.546289 1668.51115,457.930372 1656.74644,458.622413 C1644.98173,459.314455 1633.67839,459.775816 1623.06709,459.545135 C1597.00019,459.775816 1571.16397,457.469011 1545.55844,452.62472 L1545.55844,452.855401 Z M1332.17897,452.163359 L1332.17897,170.502459 L1408.07285,170.502459 L1408.07285,451.932679 L1332.17897,451.932679 L1332.17897,452.163359 Z M2536.33121,452.163359 L2510.03364,398.876162 L2353.17089,398.876162 L2326.87331,451.932679 L2241.98289,451.932679 L2389.38773,170.502459 L2474.04748,170.502459 L2621.22164,451.932679 L2536.5619,451.932679 L2536.33121,452.163359 Z M2380.39119,343.743521 L2483.2747,343.743521 L2432.06363,239.937292 L2380.39119,343.743521 Z M2119.9529,452.163359 L2119.9529,334.5163 L1926.87331,334.5163 L1926.87331,452.163359 L1850.74875,452.163359 L1850.74875,170.502459 L1926.87331,170.502459 L1926.87331,272.924605 L2120.18358,272.924605 L2120.18358,170.502459 L2196.07747,170.502459 L2196.07747,451.932679 L2119.9529,451.932679 L2119.9529,452.163359 Z M998.384274,452.163359 L998.384274,170.502459 L1267.12706,170.502459 L1267.12706,230.479391 L1074.27816,230.479391 L1074.27816,279.383659 L1256.97712,279.383659 L1256.97712,339.360591 L1074.27816,339.360591 L1074.27816,452.163359 L998.153594,452.163359 L998.384274,452.163359 Z M867.357744,452.163359 L841.060174,398.876162 L684.197424,398.876162 L657.669166,451.932679 L573.009419,451.932679 L720.183583,170.502459 L805.07401,170.502459 L952.248174,451.932679 L867.357744,451.932679 L867.357744,452.163359 Z M711.417724,343.743521 L814.070554,343.743521 L763.090158,239.937292 L711.417724,343.743521 Z" id="type" fill="#151515"></path>
                <path d="M66.9735012,498.382101 C193.869369,735.622202 390.480228,619.489313 449.81765,566.652344 C509.155073,513.815374 653.639931,314.474315 493.6386,128.72892 C333.639462,-57.0186675 138.697253,4.48640107 98.2369696,33.0965205 C18.2724862,89.6413614 -59.9223669,261.142 66.9735012,498.382101 Z" id="shape" fill="url(#linearGradient-1)" transform="translate(283.287902, 321.004790) scale(-1, 1) translate(-283.287902, -321.004790) "></path>
                <path d="M261.164152,393.119866 C265.19013,393.240125 268.42567,396.475665 268.545928,400.501643 L268.545928,444.330939 C268.547818,448.44672 265.278043,451.818676 261.164152,451.943396 L69.0072895,451.943396 C67.0098652,452.005846 65.0724677,451.255783 63.6378154,449.864605 C62.203163,448.473427 61.3938568,446.56002 61.3948328,444.56162 L61.3948328,409.728863 C61.2782361,407.560824 62.1220068,405.451398 63.7016379,403.96185 L183.194141,296.003373 C195.428571,287.250159 203.455325,273.788624 205.339469,258.863811 C205.339469,242.485495 192.421361,224.723096 163.816978,224.723096 C143.319471,225.606916 126.501259,241.251765 124.139931,261.631977 C123.682545,265.385874 120.538817,268.234878 116.758154,268.321712 L69.23797,268.321712 C67.1492291,268.370922 65.1374661,267.532687 63.7016379,266.014907 C62.2527603,264.374002 61.5803876,262.188791 61.8561938,260.017214 C62.5786533,233.746163 73.7454093,208.847275 92.8832202,190.835217 C112.021031,172.82316 137.550386,163.184532 163.816978,164.054123 C261.856194,164.054123 269.46865,236.257121 269.46865,251.712715 C269.46865,295.542012 245.708558,318.148702 218.488258,340.524711 L159.434048,392.889186 L260.933472,392.889186 L261.164152,393.119866 Z M428.40752,167.052969 L465.316401,167.052969 C469.432182,167.049303 472.804138,170.320854 472.928858,174.434745 L472.928858,334.757698 L503.840046,334.757698 C505.838446,334.756722 507.751853,335.566028 509.143031,337.000681 C510.534209,338.435333 511.284272,340.37273 511.221822,342.370155 L511.221822,385.50741 C511.221822,389.584252 507.916888,392.889186 503.840046,392.889186 L503.840046,393.119866 L472.928858,393.119866 L472.928858,444.56162 C472.8086,448.587598 469.57306,451.823138 465.547082,451.943396 L417.565536,451.943396 C413.539558,451.823138 410.304018,448.587598 410.18376,444.56162 L410.18376,392.889186 L280.541315,392.889186 C276.515337,392.768928 273.279797,389.533388 273.159538,385.50741 L273.159538,353.90418 C273.159538,352.058736 273.85158,350.443973 274.774302,349.05989 L422.409827,169.821135 C423.861635,168.005467 426.083936,166.979789 428.40752,167.052969 Z M411.567843,268.552392 L356.204521,334.527018 L411.567843,334.527018 L411.567843,268.552392 Z" id="Combined-Shape" fill="#fff"></path>
            </g>
        </g>
    </g>
</svg>
